<?xml version="1.0" encoding="UTF-8" standalone="no"?>
<svg
   version="1.1"
   id="svg2"
   xml:space="preserve"
   width="335.60001"
   height="150.10533"
   viewBox="0 0 335.60001 150.10533"
   sodipodi:docname="HMC-Capital-logo.svg"
   inkscape:version="1.1 (c4e8f9e, 2021-05-24)"
   xmlns:inkscape="http://www.inkscape.org/namespaces/inkscape"
   xmlns:sodipodi="http://sodipodi.sourceforge.net/DTD/sodipodi-0.dtd"
   xmlns="http://www.w3.org/2000/svg"
   xmlns:svg="http://www.w3.org/2000/svg"
   xmlns:rdf="http://www.w3.org/1999/02/22-rdf-syntax-ns#"
   xmlns:cc="http://creativecommons.org/ns#"
   xmlns:dc="http://purl.org/dc/elements/1.1/"><metadata
     id="metadata8"><rdf:RDF><cc:Work
         rdf:about=""><dc:format>image/svg+xml</dc:format><dc:type
           rdf:resource="http://purl.org/dc/dcmitype/StillImage" /></cc:Work></rdf:RDF></metadata><defs
     id="defs6"><linearGradient
       x1="0"
       y1="0"
       x2="1"
       y2="0"
       gradientUnits="userSpaceOnUse"
       gradientTransform="matrix(-187.55603,0,0,187.55603,273.46857,324.72797)"
       spreadMethod="pad"
       id="linearGradient32"><stop
         style="stop-opacity:1;stop-color:#000000"
         offset="0"
         id="stop26" /><stop
         style="stop-opacity:1;stop-color:#000000"
         offset="0.00606915"
         id="stop28" /><stop
         style="stop-opacity:1;stop-color:#231f20"
         offset="1"
         id="stop30" /></linearGradient><clipPath
       clipPathUnits="userSpaceOnUse"
       id="clipPath50"><path
         d="M 0,595.276 H 389.922 V 0 H 0 Z"
         id="path48" /></clipPath></defs><sodipodi:namedview
     pagecolor="#ffffff"
     bordercolor="#666666"
     borderopacity="1"
     objecttolerance="10"
     gridtolerance="10"
     guidetolerance="10"
     inkscape:pageopacity="0"
     inkscape:pageshadow="2"
     inkscape:window-width="2397"
     inkscape:window-height="1108"
     id="namedview4"
     inkscape:pagecheckerboard="0"
     showgrid="false"
     inkscape:zoom="1.0999099"
     inkscape:cx="175.9235"
     inkscape:cy="101.82652"
     inkscape:window-x="580"
     inkscape:window-y="267"
     inkscape:window-maximized="0"
     inkscape:current-layer="g10" /><g
     id="g10"
     inkscape:groupmode="layer"
     inkscape:label="HMC Capital Logo"
     transform="matrix(1.3333333,0,0,-1.3333333,-83.999998,499.13065)"><path
       d="M 314.7,261.769 H 63 v 13.384 h 251.7 z"
       style="fill:#c39f5c;fill-opacity:1;fill-rule:nonzero;stroke:none"
       id="path12" /><g
       id="g14"><g
         id="g16"><g
           id="g22"><g
             id="g24"><path
               d="M 314.7,275.107 H 63 v 99.241 h 251.7 z"
               style="fill:url(#linearGradient32);stroke:none"
               id="path34" /></g></g></g></g><g
       id="g36"
       transform="translate(117.4516,328.8704)"><path
         d="M 0,0 H -14.442 V 14.235 H -22.62 V -22.31 h 8.178 V -7.092 H 0 V -22.31 H 8.23 V 14.235 H 0 Z"
         style="fill:#ffffff;fill-opacity:1;fill-rule:nonzero;stroke:none"
         id="path38" /></g><g
       id="g40"
       transform="translate(148.7916,323.0753)"><path
         d="m 0,0 -12.861,20.031 h -5.9 v -36.546 h 8.126 V 3.717 l 7.92,-12.363 h 5.384 l 7.919,12.363 v -20.232 h 8.127 v 36.546 h -5.901 z"
         style="fill:#ffffff;fill-opacity:1;fill-rule:nonzero;stroke:none"
         id="path42" /></g><g
       id="g44"><g
         id="g46"
         clip-path="url(#clipPath50)"><g
           id="g52"
           transform="translate(201.1714,313.1671)"><path
             d="m 0,0 c -1.368,-1.303 -2.954,-2.361 -4.786,-3.141 -2.066,-0.881 -4.312,-1.321 -6.739,-1.321 -2.361,0 -4.558,0.41 -6.591,1.228 -2.033,0.818 -3.804,1.969 -5.312,3.452 -1.509,1.483 -2.681,3.205 -3.517,5.167 -0.836,1.962 -1.254,4.07 -1.254,6.326 0,2.285 0.409,4.402 1.229,6.348 0.819,1.946 1.975,3.645 3.468,5.098 1.492,1.451 3.238,2.587 5.238,3.405 2,0.819 4.164,1.229 6.493,1.229 2.393,0 4.624,-0.433 6.69,-1.298 1.844,-0.773 3.454,-1.832 4.855,-3.147 l 1.915,1.933 c -1.691,1.622 -3.667,2.9 -5.927,3.832 -2.26,0.931 -4.839,1.397 -7.738,1.397 -2.761,0 -5.298,-0.475 -7.61,-1.423 -2.312,-0.951 -4.34,-2.27 -6.082,-3.96 -1.743,-1.691 -3.097,-3.685 -4.063,-5.979 -0.967,-2.295 -1.45,-4.772 -1.45,-7.429 0,-2.657 0.483,-5.132 1.45,-7.427 0.966,-2.296 2.32,-4.306 4.063,-6.031 1.742,-1.725 3.779,-3.062 6.109,-4.012 2.329,-0.948 4.856,-1.423 7.583,-1.423 3.002,0 5.642,0.458 7.919,1.372 2.278,0.914 4.279,2.199 6.005,3.856 z"
             style="fill:#c39f5c;fill-opacity:1;fill-rule:nonzero;stroke:none"
             id="path54" /></g><g
           id="g56"
           transform="translate(182.0363,332.2698)"><path
             d="m 0,0 c 0.867,0.898 1.889,1.587 3.068,2.068 1.177,0.48 2.478,0.72 3.904,0.72 1.611,0 3.028,-0.263 4.252,-0.79 1.224,-0.527 2.254,-1.254 3.091,-2.184 l 2.236,2.257 C 15.452,3.152 14.162,4.027 12.654,4.669 10.961,5.391 9.128,5.751 7.156,5.751 5.272,5.751 3.527,5.418 1.922,4.752 0.317,4.087 -1.088,3.157 -2.295,1.965 -3.503,0.772 -4.437,-0.622 -5.1,-2.217 c -0.662,-1.595 -0.993,-3.322 -0.993,-5.18 0,-1.859 0.338,-3.592 1.015,-5.201 0.677,-1.609 1.612,-3.016 2.805,-4.223 1.193,-1.207 2.606,-2.143 4.24,-2.808 1.634,-0.666 3.393,-0.999 5.277,-0.999 2.002,0 3.865,0.367 5.587,1.102 1.522,0.649 2.818,1.523 3.914,2.594 l -2.244,2.244 c -0.868,-0.96 -1.922,-1.696 -3.16,-2.208 -1.24,-0.51 -2.696,-0.766 -4.369,-0.766 -1.426,0 -2.727,0.24 -3.904,0.721 -1.179,0.479 -2.201,1.177 -3.068,2.091 -0.868,0.914 -1.534,1.998 -1.998,3.254 -0.465,1.254 -0.697,2.656 -0.697,4.205 0,1.488 0.232,2.867 0.697,4.137 0.464,1.27 1.13,2.355 1.998,3.254"
             style="fill:#c39f5c;fill-opacity:1;fill-rule:nonzero;stroke:none"
             id="path58" /></g><g
           id="g60"
           transform="translate(214.8056,315.9393)"><path
             d="m 0,0 c -1.115,-1.241 -2.61,-1.861 -4.484,-1.861 -1.241,0 -2.355,0.291 -3.343,0.873 -0.988,0.583 -1.767,1.381 -2.337,2.394 -0.57,1.013 -0.855,2.178 -0.855,3.495 0,1.317 0.285,2.482 0.855,3.496 0.57,1.013 1.343,1.811 2.318,2.394 0.975,0.582 2.084,0.874 3.325,0.874 1.241,0 2.33,-0.285 3.267,-0.855 C -0.317,10.24 0.404,9.448 0.912,8.435 1.418,7.422 1.672,6.244 1.672,4.901 1.672,2.875 1.114,1.241 0,0 m 1.52,10.863 c -0.053,0.082 -0.096,0.171 -0.152,0.251 -0.684,0.975 -1.565,1.735 -2.641,2.279 -1.077,0.545 -2.299,0.818 -3.667,0.818 -1.671,0 -3.172,-0.412 -4.502,-1.235 -1.33,-0.824 -2.388,-1.938 -3.172,-3.344 -0.786,-1.405 -1.179,-2.995 -1.179,-4.768 0,-1.748 0.393,-3.319 1.179,-4.712 0.784,-1.393 1.848,-2.502 3.191,-3.325 1.343,-0.822 2.85,-1.234 4.522,-1.234 1.367,0 2.583,0.272 3.647,0.817 1.064,0.544 1.931,1.31 2.603,2.298 0.063,0.093 0.112,0.194 0.171,0.289 V -4.027 H 4.217 V 13.831 H 1.52 Z"
             style="fill:#c39f5c;fill-opacity:1;fill-rule:nonzero;stroke:none"
             id="path62" /></g><g
           id="g64"
           transform="translate(236.8425,317.3266)"><path
             d="m 0,0 c -0.557,-1.026 -1.317,-1.824 -2.28,-2.394 -0.963,-0.569 -2.077,-0.855 -3.344,-0.855 -1.215,0 -2.292,0.286 -3.228,0.855 -0.938,0.57 -1.673,1.368 -2.205,2.394 -0.532,1.025 -0.797,2.197 -0.797,3.514 0,1.317 0.265,2.489 0.797,3.515 0.532,1.026 1.273,1.823 2.223,2.394 0.95,0.569 2.045,0.854 3.286,0.854 1.241,0 2.337,-0.285 3.287,-0.854 C -1.311,8.852 -0.557,8.055 0,7.029 0.557,6.003 0.836,4.831 0.836,3.514 0.836,2.197 0.557,1.025 0,0 m -0.684,11.589 c -1.317,0.822 -2.799,1.234 -4.445,1.234 -1.317,0 -2.527,-0.266 -3.629,-0.798 -1.102,-0.532 -2.008,-1.286 -2.716,-2.261 -0.085,-0.116 -0.152,-0.242 -0.228,-0.362 v 3.041 H -14.4 v -25.381 h 2.698 v 10.616 c 0.07,-0.112 0.132,-0.229 0.209,-0.337 0.696,-0.976 1.589,-1.742 2.678,-2.3 1.089,-0.557 2.318,-0.835 3.686,-0.835 1.646,0 3.135,0.411 4.464,1.234 1.33,0.823 2.375,1.932 3.135,3.325 0.76,1.393 1.14,2.964 1.14,4.711 0,1.773 -0.387,3.363 -1.159,4.769 -0.774,1.406 -1.818,2.52 -3.135,3.344"
             style="fill:#c39f5c;fill-opacity:1;fill-rule:nonzero;stroke:none"
             id="path66" /></g><g
           id="g68"
           transform="translate(244.1001,337.3691)"><path
             d="m 0,0 c -0.507,0 -0.938,-0.178 -1.292,-0.532 -0.355,-0.355 -0.532,-0.798 -0.532,-1.33 0,-0.507 0.177,-0.95 0.532,-1.33 0.354,-0.38 0.785,-0.57 1.292,-0.57 0.556,0 1.007,0.19 1.349,0.57 0.341,0.38 0.512,0.823 0.512,1.33 0,0.532 -0.171,0.975 -0.512,1.33 C 1.007,-0.178 0.556,0 0,0"
             style="fill:#c39f5c;fill-opacity:1;fill-rule:nonzero;stroke:none"
             id="path70" /></g><path
           d="m 242.77,311.912 h 2.698 v 17.858 h -2.698 z"
           style="fill:#c39f5c;fill-opacity:1;fill-rule:nonzero;stroke:none"
           id="path72" /><g
           id="g74"
           transform="translate(258.8802,327.3385)"><path
             d="M 0,0 V 2.431 H -4.484 V 9.955 H -7.182 V 2.431 h -4.483 V 0 h 4.483 v -15.426 h 2.698 V 0 Z"
             style="fill:#c39f5c;fill-opacity:1;fill-rule:nonzero;stroke:none"
             id="path76" /></g><g
           id="g78"
           transform="translate(272.5956,315.9393)"><path
             d="m 0,0 c -1.114,-1.241 -2.609,-1.861 -4.483,-1.861 -1.241,0 -2.356,0.291 -3.343,0.873 -0.989,0.583 -1.768,1.381 -2.337,2.394 -0.57,1.013 -0.855,2.178 -0.855,3.495 0,1.317 0.285,2.482 0.855,3.496 0.569,1.013 1.342,1.811 2.317,2.394 0.975,0.582 2.083,0.874 3.325,0.874 1.241,0 2.33,-0.285 3.268,-0.855 C -0.317,10.24 0.405,9.448 0.912,8.435 1.418,7.422 1.672,6.244 1.672,4.901 1.672,2.875 1.114,1.241 0,0 m 1.52,10.863 c -0.052,0.082 -0.095,0.171 -0.152,0.251 -0.684,0.975 -1.564,1.735 -2.641,2.279 -1.077,0.545 -2.298,0.818 -3.666,0.818 -1.672,0 -3.172,-0.412 -4.503,-1.235 -1.33,-0.824 -2.387,-1.938 -3.172,-3.344 -0.785,-1.405 -1.178,-2.995 -1.178,-4.768 0,-1.748 0.393,-3.319 1.178,-4.712 0.785,-1.393 1.849,-2.502 3.191,-3.325 1.343,-0.822 2.85,-1.234 4.522,-1.234 1.367,0 2.584,0.272 3.648,0.817 1.063,0.544 1.93,1.31 2.602,2.298 0.063,0.093 0.113,0.195 0.171,0.291 V -4.027 H 4.217 V 13.831 H 1.52 Z"
             style="fill:#c39f5c;fill-opacity:1;fill-rule:nonzero;stroke:none"
             id="path80" /></g><path
           d="m 280.233,311.912 h 2.697 v 26.901 h -2.697 z"
           style="fill:#c39f5c;fill-opacity:1;fill-rule:nonzero;stroke:none"
           id="path82" /></g></g></g></svg>
